{"title":"Zanjeer 2013 Hindi Movies Super CamRip XviD New Source +Sample ~","uid":8888869,"size":750558796,"categoryP":"video","categoryS":"movies","magnet":"?xt=urn:btih:3d45a1f6ea6150cfaec9a72b13c1d83dc7422275&amp;dn=Zanjeer+2013+Hindi+Movies+Super+CamRip+XviD+New+Source+%2BSample+%7E&amp;tr=udp%3A%2F%2Ftracker.openbittorrent.com%3A80&amp;tr=udp%3A%2F%2Fopen.demonii.com%3A1337&amp;tr=udp%3A%2F%2Ftracker.coppersurfer.tk%3A6969&amp;tr=udp%3A%2F%2Fexodus.desync.com%3A6969","seeders":1,"leechers":0,"uploader":"basicssom","files":2,"time":1378533977,"description":" &lt;a href=&quot;http://users2.jabry.com/myimghost/logo.jpg&quot; rel=&quot;nofollow&quot; target=&quot;_NEW&quot;&gt;http://users2.jabry.com/myimghost/logo.jpg&lt;/a&gt;\n\nZanjeer 2013 Hindi Movies Super CamRip XviD New Source +Sample ~ â˜»rDXâ˜»\n\nScreen Shots :\n &lt;a href=&quot;\nhttp://myimghosting.serveftp.com/13/Zanjeer.html&quot; rel=&quot;nofollow&quot; target=&quot;_NEW&quot;&gt;\nhttp://myimghosting.serveftp.com/13/Zanjeer.html&lt;/a&gt;\n &lt;a href=&quot;\nhttp://myimghost.cwahi.net/Zanjeer.html&quot; rel=&quot;nofollow&quot; target=&quot;_NEW&quot;&gt;\nhttp://myimghost.cwahi.net/Zanjeer.html&lt;/a&gt;\n\nAll rDX torrents are Seeding From the 1Gbps Seedbox 24X7\n &lt;a href=&quot;\nhttp://users2.jabry.com/myimghost/Zanjeer/Zanjeer.jpg&quot; rel=&quot;nofollow&quot; target=&quot;_NEW&quot;&gt;\nhttp://users2.jabry.com/myimghost/Zanjeer/Zanjeer.jpg&lt;/a&gt;\n &lt;a href=&quot;\nhttp://users2.jabry.com/myimghost/Zanjeer/Zanjeer1.jpg&quot; rel=&quot;nofollow&quot; target=&quot;_NEW&quot;&gt;\nhttp://users2.jabry.com/myimghost/Zanjeer/Zanjeer1.jpg&lt;/a&gt;\n &lt;a href=&quot;\nhttp://users2.jabry.com/myimghost/Zanjeer/Zanjeer2.jpg&quot; rel=&quot;nofollow&quot; target=&quot;_NEW&quot;&gt;\nhttp://users2.jabry.com/myimghost/Zanjeer/Zanjeer2.jpg&lt;/a&gt;\n\nFormat                                   : AVI\nFormat/Info                              : Audio Video Interleave\nFile size                                : 701 MiB\nDuration                                 : 2h 2mn\nOverall bit rate                         : 803 Kbps\n\nVideo\nID                                       : 0\nFormat                                   : MPEG-4 Visual\nFormat profile                           : Advanced Simple@L5\nFormat settings, BVOP                    : 2\nFormat settings, QPel                    : No\nFormat settings, GMC                     : No warppoints\nFormat settings, Matrix                  : Default (H.263)\nCodec ID                                 : XVID\nCodec ID/Hint                            : XviD\nDuration                                 : 2h 2mn\nBit rate                                 : 603 Kbps\nWidth                                    : 576 pixels\nHeight                                   : 208 pixels\nDisplay aspect ratio                     : 2.769\nFrame rate                               : 25.000 fps\nColor space                              : YUV\nChroma subsampling                       : 4:2:0\nBit depth                                : 8 bits\nScan type                                : Progressive\nCompression mode                         : Lossy\nBits/(Pixel*Frame)                       : 0.201\nStream size                              : 526 MiB (75%)\nWriting library                          : XviD 1.2.1 (UTC 2008-12-04)\n\nAudio\nID                                       : 1\nFormat                                   : AC-3\nFormat/Info                              : Audio Coding 3\nMode extension                           : CM (complete main)\nFormat settings, Endianness              : Big\nCodec ID                                 : 2000\nDuration                                 : 2h 2mn\nBit rate mode                            : Constant\nBit rate                                 : 192 Kbps\nChannel(s)                               : 2 channels\nChannel positions                        : Front: L R\nSampling rate                            : 48.0 KHz\nBit depth                                : 16 bits\nCompression mode                         : Lossy\nStream size                              : 168 MiB (24%)\nAlignment                                : Aligned on interleaves\nInterleave, duration                     : 64 ms (1.60 video frames)\nInterleave, preload duration             : 192 ms\nTitle                                    : VTS_01_1 T80 2_0ch 192Kbps DELAY 0ms","torrent":{"xt":"urn:btih:3d45a1f6ea6150cfaec9a72b13c1d83dc7422275","amp;dn":"Zanjeer+2013+Hindi+Movies+Super+CamRip+XviD+New+Source+%2BSample+%7E","amp;tr":["udp%3A%2F%2Ftracker.openbittorrent.com%3A80","udp%3A%2F%2Fopen.demonii.com%3A1337","udp%3A%2F%2Ftracker.coppersurfer.tk%3A6969","udp%3A%2F%2Fexodus.desync.com%3A6969"],"infoHash":"3d45a1f6ea6150cfaec9a72b13c1d83dc7422275","infoHashBuffer":{"type":"Buffer","data":[61,69,161,246,234,97,80,207,174,201,167,43,19,193,216,61,199,66,34,117]},"announce":[],"urlList":[]}}